<?xml version="1.0" encoding="utf-8"?>
<!-- Generator: Adobe Illustrator 30.2.1, SVG Export Plug-In . SVG Version: 9.03 Build 0)  -->
<svg version="1.1" xmlns="http://www.w3.org/2000/svg" xmlns:xlink="http://www.w3.org/1999/xlink" x="0px" y="0px"
	 viewBox="0 0 1024 1024" style="enable-background:new 0 0 1024 1024;" xml:space="preserve">
<g>
</g>
<g id="_x31___x2013__Layer">
	<g>
		<g>
			<path style="fill:#F6BB43;" d="M506.8441467,102.0127106l7.5362854-0.0251312
				c11.0456543-0.0368347,20.0298462,8.8875961,20.0666504,19.9332809l0.3421631,102.6087112
				c0.0368652,11.0456696-8.8875732,20.0298309-19.9332275,20.0666656l-7.5362854,0.0251312
				c-11.0456848,0.0368347-20.0298462-8.8876038-20.0666809-19.9332886l-0.3421631-102.6087036
				C486.874054,111.033699,495.7984619,102.0495453,506.8441467,102.0127106z"/>
		</g>
		<g>
			<path style="fill:#F6BB43;" d="M218.4582825,225.732132l5.3111725-5.3467255
				c7.7843933-7.8365479,20.4476776-7.87883,28.2842255-0.0944214l72.7975159,72.3131104
				c7.8365479,7.7843933,7.8788147,20.4476929,0.0944214,28.2842407l-5.3111572,5.3467407
				c-7.7844238,7.8365479-20.4476929,7.8788147-28.2842407,0.0944214l-72.7975159-72.3131256
				C210.716156,246.2319641,210.6738892,233.5686798,218.4582825,225.732132z"/>
		</g>
		<g>
			<path style="fill:#F6BB43;" d="M102.0126648,517.1547852l-0.0250244-7.5362549
				c-0.0366669-11.0456848,8.8879013-20.0297241,19.9335861-20.0663757l102.608696-0.3406372
				c11.0456848-0.0366821,20.0297089,8.8878784,20.0663757,19.9335632l0.0250244,7.5362549
				c0.0366669,11.0457153-8.8878937,20.0297241-19.9335785,20.0664062l-102.6087112,0.3406372
				C111.0333481,537.125061,102.0493317,528.2005005,102.0126648,517.1547852z"/>
		</g>
		<g>
			<path style="fill:#F6BB43;" d="M225.732254,805.5418091l-5.3467407-5.3111572
				c-7.8365631-7.7843628-7.8788605-20.4476318-0.0944824-28.2842407l72.312973-72.7976074
				c7.7843933-7.8366089,20.4476624-7.8789062,28.2842407-0.0944824l5.3467407,5.3111572
				c7.8365479,7.7843628,7.8788452,20.4476318,0.0944824,28.2842407l-72.312973,72.7976074
				C246.2321014,813.2839355,233.5688171,813.3262329,225.732254,805.5418091z"/>
		</g>
		<g>
			<path style="fill:#F6BB43;" d="M517.1560059,921.9873047l-7.5362854,0.0251465
				c-11.0456848,0.0368042-20.0298462-8.8875732-20.0667114-19.9332886l-0.3423462-102.6087036
				c-0.0368652-11.0456543,8.8875427-20.0298462,19.9332275-20.0667114l7.5362854-0.0251465
				c11.0456543-0.0368042,20.0298462,8.8875732,20.0667114,19.9332886l0.3423462,102.6087036
				C537.1260986,912.9662476,528.2016602,921.9504395,517.1560059,921.9873047z"/>
		</g>
		<g>
			<path style="fill:#F6BB43;" d="M805.5418701,798.2677002l-5.3111572,5.3468018
				c-7.7843628,7.8365479-20.4476929,7.8788452-28.2842407,0.0944824l-72.7976685-72.3129272
				c-7.8366089-7.7843628-7.8789062-20.4476929-0.0945435-28.2842407l5.3111572-5.3467407
				c7.7843628-7.8366089,20.4476929-7.8789062,28.2842407-0.0944824l72.7977295,72.3129272
				C813.2839355,777.7678833,813.3262329,790.4311523,805.5418701,798.2677002z"/>
		</g>
		<g>
			<path style="fill:#F6BB43;" d="M921.9873657,506.8450928l0.0250244,7.5362549
				c0.0366821,11.0457153-8.8878784,20.0297241-19.9335327,20.0664062l-102.6087036,0.3408203
				c-11.0457153,0.0366821-20.0297241-8.8878784-20.0664062-19.9335327l-0.0250854-7.5362854
				c-0.0366821-11.0456848,8.8878784-20.0297241,19.9335938-20.0664062l102.6087036-0.3407898
				C912.9666138,486.8748779,921.9506836,495.799408,921.9873657,506.8450928z"/>
		</g>
		<g>
			<path style="fill:#F6BB43;" d="M798.2676392,218.4580841l5.3468018,5.311142
				c7.8365479,7.7843781,7.8789062,20.4476624,0.0944824,28.2842407l-72.3128052,72.7977905
				c-7.7843628,7.8365784-20.4476318,7.8789062-28.2842407,0.0945435l-5.3467407-5.3111572
				c-7.8366089-7.7843628-7.8789062-20.4476624-0.0945435-28.2842407l72.3128052-72.7977905
				C777.7678223,210.7160339,790.4310913,210.6737213,798.2676392,218.4580841z"/>
		</g>
	</g>
	<circle style="fill:#F6BB43;" cx="512" cy="512" r="237.6811523"/>
</g>
</svg>
