<?xml version="1.0" encoding="utf-8"?>
<!-- Generator: Adobe Illustrator 30.2.1, SVG Export Plug-In . SVG Version: 9.03 Build 0)  -->
<svg version="1.1" xmlns="http://www.w3.org/2000/svg" xmlns:xlink="http://www.w3.org/1999/xlink" x="0px" y="0px"
	 viewBox="0 0 1024 1024" style="enable-background:new 0 0 1024 1024;" xml:space="preserve">
<g>
</g>
<g id="_x33___x2013__Layer">
	<path style="fill:#636C77;" d="M623.0874023,572.3134155c-95.1690674,0-172.3188477-77.1498108-172.3188477-172.3188171
		c0-19.4336548,3.2200928-38.114502,9.1506042-55.5419312c-67.3344727,23.4345398-115.6626892,87.456543-115.6626892,162.7758179
		c0,95.1690979,77.1497498,172.3188782,172.3188477,172.3188782c75.7354126,0,140.0561523-48.8601074,163.1682129-116.7769165
		C661.9980469,568.9464722,642.9371948,572.3134155,623.0874023,572.3134155z"/>
	<path style="fill:#424952;" d="M551.0204468,644.7142944c-95.1690979,0-172.3188477-77.1497803-172.3188477-172.3188477
		c0-38.397583,12.5659485-73.8545837,33.8013611-102.4992676c-41.4632568,31.4654236-68.2464905,81.2661743-68.2464905,137.3323059
		c0,95.1690979,77.1497498,172.3188782,172.3188477,172.3188782c56.765625,0,107.118042-27.449707,138.5128784-69.7984009
		C626.1735229,631.6917114,590.1184082,644.7142944,551.0204468,644.7142944z"/>
</g>
</svg>
